# xmcd CD database file
# Copyright (C) 1997 Ti Kan
# 
# Track frame offsets:
#     150
#     18454
#     33659
#     57138
#     77973
#     93426
#     110454
#     132385
#     146280
#     162430
#     173031
#     186855
#     207118
# 
# Disc length: 3233 seconds
# 
# Revision: 1
# Processed by: cddbd v1.4b41PL1 Copyright (c) Steve Scherf et al.
# Submitted via: DiscPlay 4.0.3
# 
DISCID=af0c9f0d
DTITLE=The Rankin Family - Collection
DYEAR=1900
DGENRE=
TTITLE0=Roving Gypsy Boy (remix)
TTITLE1=Borders And Time
TTITLE2=Down By The Sally Gardens
TTITLE3=Christy Campbell Medley
TTITLE4=Orangedale Whistle
TTITLE5=Rise Again
TTITLE6=You Feel The Same Way Too
TTITLE7=Grey Dusk Of Eve (Portobello)
TTITLE8=North Country
TTITLE9=Fail II E (Oran Luadhaidh)
TTITLE10=Gillis Mountain
TTITLE11=Fare Thee Well Love
TTITLE12=Mull River Shuffle (Live)
EXTD=
EXTT0=
EXTT1=
EXTT2=
EXTT3=
EXTT4=
EXTT5=
EXTT6=
EXTT7=
EXTT8=
EXTT9=
EXTT10=
EXTT11=
EXTT12=
PLAYORDER=
